# xmcd CD database file
#
# Track frame offsets:
#	150
#	26855
#	54525
#	73718
#	101170
#	118415
#	145240
#	173608
#	192798
#	205105
#	222038
#	246815
#
# Disc length: 3662 seconds
#
# Revision: 3
# Processed by: cddbd v1.5.2PL0 Copyright (c) Steve Scherf et al.
# Submitted via: CDex 1.70beta2
#
DISCID=b40e4c0c
DTITLE=Kenny Wayne Shepherd - Ledbetter Heights
DYEAR=1995
DGENRE=Blues
TTITLE0=Born With A Broken Heart
TTITLE1=Deja Voodoo
TTITLE2=Aberdeen
TTITLE3=Shame, Shame, Shame
TTITLE4=One Foot On The Path
TTITLE5=Everybody Gets The Blues
TTITLE6=While We Cry (Live)
TTITLE7=I'm Leaving You (Commit A Crime)
TTITLE8=(Let Me Up) I've Had Enough
TTITLE9=Riverside
TTITLE10=What's Goin' Down
TTITLE11=Ledbetter Heights
EXTD=YEAR: 1995
EXTT0=
EXTT1=
EXTT2=
EXTT3=
EXTT4=
EXTT5=
EXTT6=
EXTT7=
EXTT8=
EXTT9=
EXTT10=
EXTT11=
PLAYORDER=
